<svg xmlns="http://www.w3.org/2000/svg" version="1.1" xmlns:xlink="http://www.w3.org/1999/xlink" xmlns:svgjs="http://svgjs.com/svgjs" width="1440" height="560" preserveAspectRatio="none" viewBox="0 0 1440 560"><g mask="url(&quot;#SvgjsMask1000&quot;)" fill="none"><rect width="1440" height="560" x="0" y="0" fill="#0e2a47"></rect><path d="M -880.7622125396291,93 C -784.76,133 -592.76,295.8 -400.7622125396291,293 C -208.76,290.2 -112.76,59.2 79.2377874603709,79 C 271.24,98.8 367.24,392.2 559.2377874603709,392 C 751.24,391.8 863.09,81.8 1039.2377874603708,78 C 1215.39,74.2 1359.85,314 1440,373" stroke="rgba(51, 121, 194, 0.58)" stroke-width="2"></path><path d="M -251.25639795089026,295 C -155.26,256.8 36.74,106.4 228.74360204910974,104 C 420.74,101.6 516.74,283.4 708.7436020491098,283 C 900.74,282.6 996.74,75.4 1188.7436020491098,102 C 1380.74,128.6 1618.49,408.2 1668.7436020491098,416 C 1718.99,423.8 1485.75,196 1440,141" stroke="rgba(51, 121, 194, 0.58)" stroke-width="2"></path><path d="M -60.271555316221736,63 C 35.73,145.4 227.73,469.4 419.72844468377826,475 C 611.73,480.6 707.73,88.4 899.7284446837782,91 C 1091.73,93.6 1187.73,489.6 1379.7284446837782,488 C 1571.73,486.4 1847.67,97.4 1859.7284446837782,83 C 1871.78,68.6 1523.95,349.4 1440,416" stroke="rgba(51, 121, 194, 0.58)" stroke-width="2"></path><path d="M -484.14735021161573,74 C -388.15,123 -196.15,283.6 -4.1473502116157235,319 C 187.85,354.4 283.85,239 475.85264978838427,251 C 667.85,263 763.85,389.8 955.8526497883843,379 C 1147.85,368.2 1339.02,211.4 1435.8526497883843,197 C 1532.68,182.6 1439.17,285 1440,307" stroke="rgba(51, 121, 194, 0.58)" stroke-width="2"></path></g><defs><mask id="SvgjsMask1000"><rect width="1440" height="560" fill="#ffffff"></rect></mask></defs></svg>