<svg xmlns="http://www.w3.org/2000/svg" version="1.1" xmlns:xlink="http://www.w3.org/1999/xlink" xmlns:svgjs="http://svgjs.com/svgjs" width="1440" height="560" preserveAspectRatio="none" viewBox="0 0 1440 560"><g mask="url(&quot;#SvgjsMask1000&quot;)" fill="none"><rect width="1440" height="560" x="0" y="0" fill="#0e2a47"></rect><path d="M65.66 491.42L130.62 528.92L130.62 603.92L65.66 641.42L0.71 603.92L0.71 528.92zM585.29 266.42L650.25 303.92L650.25 378.92L585.29 416.42L520.34 378.92L520.34 303.92zM585.29 491.42L650.25 528.92L650.25 603.92L585.29 641.42L520.34 603.92L520.34 528.92zM845.11 41.42L910.06 78.92L910.06 153.92L845.11 191.42L780.15 153.92L780.15 78.92zM780.15 153.92L845.11 191.42L845.11 266.42L780.15 303.92L715.2 266.42L715.2 191.42zM780.15 378.92L845.11 416.42L845.11 491.42L780.15 528.92L715.2 491.42L715.2 416.42zM845.11 491.42L910.06 528.92L910.06 603.92L845.11 641.42L780.15 603.92L780.15 528.92zM910.06 -71.08L975.02 -33.58L975.02 41.42L910.06 78.92L845.11 41.42L845.11 -33.58zM975.02 41.42L1039.97 78.92L1039.97 153.92L975.02 191.42L910.06 153.92L910.06 78.92zM1104.92 491.42L1169.88 528.92L1169.88 603.92L1104.92 641.42L1039.97 603.92L1039.97 528.92zM1299.79 153.92L1364.74 191.42L1364.74 266.42L1299.79 303.92L1234.83 266.42L1234.83 191.42zM1494.65 266.42L1559.6 303.92L1559.6 378.92L1494.65 416.42L1429.69 378.92L1429.69 303.92z" stroke="#03305d" stroke-width="2"></path><path d="M58.16 491.42 a7.5 7.5 0 1 0 15 0 a7.5 7.5 0 1 0 -15 0zM123.12 528.92 a7.5 7.5 0 1 0 15 0 a7.5 7.5 0 1 0 -15 0zM123.12 603.92 a7.5 7.5 0 1 0 15 0 a7.5 7.5 0 1 0 -15 0zM58.16 641.42 a7.5 7.5 0 1 0 15 0 a7.5 7.5 0 1 0 -15 0zM-6.79 603.92 a7.5 7.5 0 1 0 15 0 a7.5 7.5 0 1 0 -15 0zM-6.79 528.92 a7.5 7.5 0 1 0 15 0 a7.5 7.5 0 1 0 -15 0zM577.79 266.42 a7.5 7.5 0 1 0 15 0 a7.5 7.5 0 1 0 -15 0zM642.75 303.92 a7.5 7.5 0 1 0 15 0 a7.5 7.5 0 1 0 -15 0zM642.75 378.92 a7.5 7.5 0 1 0 15 0 a7.5 7.5 0 1 0 -15 0zM577.79 416.42 a7.5 7.5 0 1 0 15 0 a7.5 7.5 0 1 0 -15 0zM512.84 378.92 a7.5 7.5 0 1 0 15 0 a7.5 7.5 0 1 0 -15 0zM512.84 303.92 a7.5 7.5 0 1 0 15 0 a7.5 7.5 0 1 0 -15 0zM577.79 491.42 a7.5 7.5 0 1 0 15 0 a7.5 7.5 0 1 0 -15 0zM642.75 528.92 a7.5 7.5 0 1 0 15 0 a7.5 7.5 0 1 0 -15 0zM642.75 603.92 a7.5 7.5 0 1 0 15 0 a7.5 7.5 0 1 0 -15 0zM577.79 641.42 a7.5 7.5 0 1 0 15 0 a7.5 7.5 0 1 0 -15 0zM512.84 603.92 a7.5 7.5 0 1 0 15 0 a7.5 7.5 0 1 0 -15 0zM512.84 528.92 a7.5 7.5 0 1 0 15 0 a7.5 7.5 0 1 0 -15 0zM837.61 41.42 a7.5 7.5 0 1 0 15 0 a7.5 7.5 0 1 0 -15 0zM902.56 78.92 a7.5 7.5 0 1 0 15 0 a7.5 7.5 0 1 0 -15 0zM902.56 153.92 a7.5 7.5 0 1 0 15 0 a7.5 7.5 0 1 0 -15 0zM837.61 191.42 a7.5 7.5 0 1 0 15 0 a7.5 7.5 0 1 0 -15 0zM772.65 153.92 a7.5 7.5 0 1 0 15 0 a7.5 7.5 0 1 0 -15 0zM772.65 78.92 a7.5 7.5 0 1 0 15 0 a7.5 7.5 0 1 0 -15 0zM837.61 266.42 a7.5 7.5 0 1 0 15 0 a7.5 7.5 0 1 0 -15 0zM772.65 303.92 a7.5 7.5 0 1 0 15 0 a7.5 7.5 0 1 0 -15 0zM707.7 266.42 a7.5 7.5 0 1 0 15 0 a7.5 7.5 0 1 0 -15 0zM707.7 191.42 a7.5 7.5 0 1 0 15 0 a7.5 7.5 0 1 0 -15 0zM772.65 378.92 a7.5 7.5 0 1 0 15 0 a7.5 7.5 0 1 0 -15 0zM837.61 416.42 a7.5 7.5 0 1 0 15 0 a7.5 7.5 0 1 0 -15 0zM837.61 491.42 a7.5 7.5 0 1 0 15 0 a7.5 7.5 0 1 0 -15 0zM772.65 528.92 a7.5 7.5 0 1 0 15 0 a7.5 7.5 0 1 0 -15 0zM707.7 491.42 a7.5 7.5 0 1 0 15 0 a7.5 7.5 0 1 0 -15 0zM707.7 416.42 a7.5 7.5 0 1 0 15 0 a7.5 7.5 0 1 0 -15 0zM902.56 528.92 a7.5 7.5 0 1 0 15 0 a7.5 7.5 0 1 0 -15 0zM902.56 603.92 a7.5 7.5 0 1 0 15 0 a7.5 7.5 0 1 0 -15 0zM837.61 641.42 a7.5 7.5 0 1 0 15 0 a7.5 7.5 0 1 0 -15 0zM772.65 603.92 a7.5 7.5 0 1 0 15 0 a7.5 7.5 0 1 0 -15 0zM902.56 -71.08 a7.5 7.5 0 1 0 15 0 a7.5 7.5 0 1 0 -15 0zM967.52 -33.58 a7.5 7.5 0 1 0 15 0 a7.5 7.5 0 1 0 -15 0zM967.52 41.42 a7.5 7.5 0 1 0 15 0 a7.5 7.5 0 1 0 -15 0zM837.61 -33.58 a7.5 7.5 0 1 0 15 0 a7.5 7.5 0 1 0 -15 0zM1032.47 78.92 a7.5 7.5 0 1 0 15 0 a7.5 7.5 0 1 0 -15 0zM1032.47 153.92 a7.5 7.5 0 1 0 15 0 a7.5 7.5 0 1 0 -15 0zM967.52 191.42 a7.5 7.5 0 1 0 15 0 a7.5 7.5 0 1 0 -15 0zM1097.42 491.42 a7.5 7.5 0 1 0 15 0 a7.5 7.5 0 1 0 -15 0zM1162.38 528.92 a7.5 7.5 0 1 0 15 0 a7.5 7.5 0 1 0 -15 0zM1162.38 603.92 a7.5 7.5 0 1 0 15 0 a7.5 7.5 0 1 0 -15 0zM1097.42 641.42 a7.5 7.5 0 1 0 15 0 a7.5 7.5 0 1 0 -15 0zM1032.47 603.92 a7.5 7.5 0 1 0 15 0 a7.5 7.5 0 1 0 -15 0zM1032.47 528.92 a7.5 7.5 0 1 0 15 0 a7.5 7.5 0 1 0 -15 0zM1292.29 153.92 a7.5 7.5 0 1 0 15 0 a7.5 7.5 0 1 0 -15 0zM1357.24 191.42 a7.5 7.5 0 1 0 15 0 a7.5 7.5 0 1 0 -15 0zM1357.24 266.42 a7.5 7.5 0 1 0 15 0 a7.5 7.5 0 1 0 -15 0zM1292.29 303.92 a7.5 7.5 0 1 0 15 0 a7.5 7.5 0 1 0 -15 0zM1227.33 266.42 a7.5 7.5 0 1 0 15 0 a7.5 7.5 0 1 0 -15 0zM1227.33 191.42 a7.5 7.5 0 1 0 15 0 a7.5 7.5 0 1 0 -15 0zM1487.15 266.42 a7.5 7.5 0 1 0 15 0 a7.5 7.5 0 1 0 -15 0zM1552.1 303.92 a7.5 7.5 0 1 0 15 0 a7.5 7.5 0 1 0 -15 0zM1552.1 378.92 a7.5 7.5 0 1 0 15 0 a7.5 7.5 0 1 0 -15 0zM1487.15 416.42 a7.5 7.5 0 1 0 15 0 a7.5 7.5 0 1 0 -15 0zM1422.19 378.92 a7.5 7.5 0 1 0 15 0 a7.5 7.5 0 1 0 -15 0zM1422.19 303.92 a7.5 7.5 0 1 0 15 0 a7.5 7.5 0 1 0 -15 0z" fill="#03305d"></path><path d="M73.24 70.67L116.55 95.67L116.55 145.67L73.24 170.67L29.94 145.67L29.94 95.67zM73.24 520.67L116.55 545.67L116.55 595.67L73.24 620.67L29.94 595.67L29.94 545.67zM159.85 70.67L203.15 95.67L203.15 145.67L159.85 170.67L116.55 145.67L116.55 95.67zM203.15 295.67L246.45 320.67L246.45 370.67L203.15 395.67L159.85 370.67L159.85 320.67zM333.06 520.67L376.36 545.67L376.36 595.67L333.06 620.67L289.75 595.67L289.75 545.67zM419.66 520.67L462.97 545.67L462.97 595.67L419.66 620.67L376.36 595.67L376.36 545.67zM506.27 70.67L549.57 95.67L549.57 145.67L506.27 170.67L462.97 145.67L462.97 95.67zM462.97 145.67L506.27 170.67L506.27 220.67L462.97 245.67L419.66 220.67L419.66 170.67zM462.97 445.67L506.27 470.67L506.27 520.67L462.97 545.67L419.66 520.67L419.66 470.67zM939.29 220.67L982.6 245.67L982.6 295.67L939.29 320.67L895.99 295.67L895.99 245.67zM982.6 -4.33L1025.9 20.67L1025.9 70.67L982.6 95.67L939.29 70.67L939.29 20.67zM1155.81 145.67L1199.11 170.67L1199.11 220.67L1155.81 245.67L1112.5 220.67L1112.5 170.67zM1242.41 -4.33L1285.71 20.67L1285.71 70.67L1242.41 95.67L1199.11 70.67L1199.11 20.67zM1242.41 295.67L1285.71 320.67L1285.71 370.67L1242.41 395.67L1199.11 370.67L1199.11 320.67zM1329.02 145.67L1372.32 170.67L1372.32 220.67L1329.02 245.67L1285.71 220.67L1285.71 170.67zM1372.32 520.67L1415.62 545.67L1415.62 595.67L1372.32 620.67L1329.02 595.67L1329.02 545.67z" stroke="rgba(6, 80, 156, 0.93)" stroke-width="2"></path></g><defs><mask id="SvgjsMask1000"><rect width="1440" height="560" fill="#ffffff"></rect></mask></defs></svg>