<?xml version="1.0" encoding="utf-8"?>
<!-- Generator: Adobe Illustrator 27.2.0, SVG Export Plug-In . SVG Version: 6.00 Build 0)  -->
<svg version="1.1" id="Layer_1" xmlns="http://www.w3.org/2000/svg" xmlns:xlink="http://www.w3.org/1999/xlink" x="0px" y="0px"
	 viewBox="0 0 512 512" style="enable-background:new 0 0 512 512;" xml:space="preserve">
<style type="text/css">
	.st0{fill:#FFFFFF;}
</style>
<g transform="translate(0.000000,512.000000) scale(0.100000,-0.100000)">
	<path class="st0" d="M2497.7,4844.2c-38-16.7-76.9-63.9-83.4-100.9c-2.8-16.7-3.7-526-2.8-1132.7l2.8-1103l26.9-34.3
		c63-83.4,176-79.6,240.8,7.4c19.4,25,19.4,30.6,22.2,1141c2.8,1231.8,6.5,1154.9-57.4,1203.1
		C2606.1,4855.3,2540.3,4864.6,2497.7,4844.2z"/>
	<path class="st0" d="M1134.4,4363.6c-36.1-20.4-186.2-155.6-251-228.8c-342.7-378.8-536.2-790-604.8-1287.3
		c-16.7-114.8-16.7-459.4,0-574.2c94.5-677,448.3-1246.6,1008.6-1624.5c200-134.3,489-262.1,724.2-319.5
		c417.7-101.9,873.4-82.4,1282.7,55.6c225.1,75,519.6,238,705.7,389c383.4,312.1,666.8,754.8,784.4,1226.2
		c157.4,626.1,44.5,1285.5-309.3,1817.1c-101.9,153.7-173.2,238.9-316.7,378.8C4005.5,4345,3970.3,4370,3911,4370
		c-105.6,0-182.5-116.7-135.2-206.5c6.5-13.9,58.3-66.7,113.9-115.8c598.3-532.5,815.9-1345.7,565.9-2112.5
		c-246.4-753-915-1287.3-1711.5-1366.1c-502.9-50-1028,107.4-1439.2,432.5c-37,28.7-112.1,99.1-168.6,155.6
		c-698.3,704.8-772.4,1818-175,2614.5c78.7,103.7,188.9,223.2,276.9,299.1c44.5,38,86.1,79.6,93.5,93.5
		c31.5,60.2,3.7,155.6-54.6,191.7C1240.9,4378.4,1167.8,4382.1,1134.4,4363.6z"/>
</g>
</svg>
