<?xml version="1.0" encoding="utf-8"?>
<!-- Generator: Adobe Illustrator 27.2.0, SVG Export Plug-In . SVG Version: 6.00 Build 0)  -->
<svg version="1.1" id="Layer_1" xmlns="http://www.w3.org/2000/svg" xmlns:xlink="http://www.w3.org/1999/xlink" x="0px" y="0px"
	 viewBox="0 0 512 512" style="enable-background:new 0 0 512 512;" xml:space="preserve">
<style type="text/css">
	.st0{fill:#FFFFFF;}
</style>
<g transform="translate(0.000000,512.000000) scale(0.100000,-0.100000)">
	<path class="st0" d="M688,5104c-179-43-335-190-391-369l-22-70V2890V1115l22-70c28-90,84-176,155-240c64-58,1229-735,1331-773
		c267-101,586,53,685,331c23,65,26,90,30,264l4,192l467,3l466,3l74,27c173,63,296,195,349,373c19,66,30,728,13,793
		c-32,118-161,165-255,91c-51-40-51-41-56-429l-5-366l-26-49c-28-56-86-102-145-115c-21-5-229-10-461-10h-423v1273
		c0,1398,2,1348-61,1476c-46,94-131,174-274,257c-66,39-346,200-623,360l-502,289l1161,3c785,1,1174-1,1200-8c49-13,103-61,132-114
		c21-40,22-53,27-456c6-464,3-445,79-488c74-42,162-21,209,51l27,41v420c0,407-1,423-22,491c-57,181-213,327-395,370
		C3367,5126,776,5126,688,5104z M1341,4252c398-230,737-426,752-436c15-11,40-40,55-65l27-46l3-1590c3-1792,8-1662-73-1733
		c-77-68-173-78-260-29c-660,379-1165,674-1183,691c-13,11-34,39-45,61l-22,40v1735c0,1518,3,1790,19,1790
		C616,4670,943,4482,1341,4252z"/>
	<path class="st0" d="M4088,3630c-20-11-45-35-57-53c-25-41-28-115-7-155c8-15,71-83,140-152s126-128,126-132c0-5-339-8-754-8h-753
		l-33-22c-57-39-75-72-75-138c0-71,21-105,85-137l44-23h745h746l-126-127c-70-71-134-139-143-153c-20-31-21-111-1-149
		c21-41,70-79,111-87c81-15,100-1,386,284c148,146,279,282,293,303c31,43,36,119,12,165c-23,43-567,581-600,593
		C4185,3655,4129,3651,4088,3630z"/>
</g>
</svg>
