<?xml version="1.0" encoding="utf-8"?>
<!-- Generator: Adobe Illustrator 27.2.0, SVG Export Plug-In . SVG Version: 6.00 Build 0)  -->
<svg version="1.1" id="Layer_1" xmlns="http://www.w3.org/2000/svg" xmlns:xlink="http://www.w3.org/1999/xlink" x="0px" y="0px"
	 viewBox="0 0 512 512" style="enable-background:new 0 0 512 512;" xml:space="preserve">
<style type="text/css">
	.st0{fill:#FFFFFF;}
</style>
<g transform="translate(0.000000,512.000000) scale(0.100000,-0.100000)">
	<path class="st0" d="M2185,4889c-580-35-1123-287-1532-713c-342-355-553-787-630-1286c-24-160-24-501,1-660
		c67-437,246-839,514-1160c481-576,1186-882,1935-839c159,9,233,20,391,55c595,135,1119,510,1457,1044c47,74,54,91,54,137
		c0,86-60,147-145,147c-68,0-90-19-179-150c-130-193-255-336-396-454c-417-347-918-513-1452-479c-659,41-1262,409-1608,979
		c-485,800-359,1823,306,2489c352,351,810,559,1302,590c537,34,1043-134,1457-484c145-123,267-262,393-451c86-129,109-148,177-148
		c85,0,145,61,145,147c0,46-7,63-54,137c-127,202-319,422-491,565C3372,4735,2786,4926,2185,4889z"/>
	<path class="st0" d="M4391,3090c-18-4-45-17-60-27c-47-35-55-67-59-215l-4-138l-1338-2c-1334-3-1339-3-1366-24c-50-37-69-72-69-124
		s19-87,69-124c27-21,32-21,1366-24l1338-2l4-138c3-148,12-180,59-214c34-26,93-38,130-28c33,10,576,388,620,433c51,50,51,144,0,194
		c-47,47-588,424-623,434c-18,5-33,9-33,8S4410,3094,4391,3090z"/>
</g>
</svg>
