<?xml version="1.0" encoding="utf-8"?>
<!-- Generator: Adobe Illustrator 27.2.0, SVG Export Plug-In . SVG Version: 6.00 Build 0)  -->
<svg version="1.1" id="Layer_1" xmlns="http://www.w3.org/2000/svg" xmlns:xlink="http://www.w3.org/1999/xlink" x="0px" y="0px"
	 viewBox="0 0 512 512" style="enable-background:new 0 0 512 512;" xml:space="preserve">
<style type="text/css">
	.st0{fill:#FFFFFF;}
</style>
<g transform="translate(0.000000,512.000000) scale(0.100000,-0.100000)">
	<path class="st0" d="M2480,4464c-45-20-87-59-111-106c-19-37-19-67-17-956l3-918l25-37c14-21,43-50,64-65c35-24,49-27,116-27
		s81,3,116,27c21,15,50,44,64,65l25,37l3,918c2,889,2,919-17,956C2698,4460,2579,4507,2480,4464z"/>
	<path class="st0" d="M1344,4036c-42-19-159-130-252-241c-740-882-545-2210,419-2841c559-367,1276-414,1878-124
		c399,193,701,494,897,894c331,677,230,1490-258,2071c-94,112-202,215-250,238c-53,25-135,22-189-6c-66-35-102-93-107-172
		c-5-82,20-139,90-198c67-56,173-183,242-290c111-169,182-354,218-562c26-154,21-408-11-552c-135-610-605-1060-1216-1165
		c-154-26-408-21-552,11c-530,117-947,493-1113,1002c-115,349-88,758,69,1095c76,161,227,367,339,461c70,59,95,116,90,198
		c-5,79-41,137-107,172C1480,4054,1394,4058,1344,4036z"/>
</g>
</svg>
