<svg xmlns="http://www.w3.org/2000/svg" version="1.1" xmlns:xlink="http://www.w3.org/1999/xlink" xmlns:svgjs="http://svgjs.com/svgjs" width="1440" height="560" preserveAspectRatio="none" viewBox="0 0 1440 560"><g clip-path="url(&quot;#SvgjsClipPath1000&quot;)" fill="none"><rect width="1440" height="560" x="0" y="0" fill="#0e2a47"></rect><circle r="93.335" cx="-44.08" cy="-12.31" stroke="#365aa3" stroke-opacity="0.25" stroke-width="2"></circle><circle r="93.335" cx="288.59" cy="381.76" stroke="#365aa3" stroke-opacity="0.25" stroke-width="2"></circle><circle r="93.335" cx="727.88" cy="656.24" stroke="#365aa3" stroke-opacity="0.25" stroke-width="2"></circle><circle r="165.625" cx="398.86" cy="311.35" stroke="#365aa3" stroke-opacity="0.25" stroke-width="2"></circle><circle r="154.2" cx="99.18" cy="420.35" stroke="#365aa3" stroke-opacity="0.25" stroke-width="2"></circle><circle r="79.95" cx="97.01" cy="158.64" stroke="#365aa3" stroke-opacity="0.25" stroke-width="2"></circle><circle r="179.24" cx="46.24" cy="425.1" stroke="#365aa3" stroke-opacity="0.25" stroke-width="2"></circle><circle r="177.855" cx="750.47" cy="448.63" stroke="#365aa3" stroke-opacity="0.25" stroke-width="2"></circle><circle r="89.54" cx="1026.56" cy="42.77" stroke="#365aa3" stroke-opacity="0.25" stroke-width="2"></circle><circle r="106.045" cx="623.4" cy="70.92" stroke="#365aa3" stroke-opacity="0.25" stroke-width="2"></circle><circle r="59.785" cx="892.82" cy="208.13" stroke="#365aa3" stroke-opacity="0.25" stroke-width="2"></circle><circle r="145.565" cx="1025.02" cy="303.39" stroke="#365aa3" stroke-opacity="0.25" stroke-width="2"></circle><circle r="88.35" cx="220.67" cy="57.32" stroke="#365aa3" stroke-opacity="0.25" stroke-width="2"></circle><circle r="165.695" cx="1319.09" cy="468.41" stroke="#365aa3" stroke-opacity="0.25" stroke-width="2"></circle><circle r="144.655" cx="618.31" cy="425.44" stroke="#365aa3" stroke-opacity="0.25" stroke-width="2"></circle><circle r="73.705" cx="794.97" cy="85.04" stroke="#365aa3" stroke-opacity="0.25" stroke-width="2"></circle><circle r="81.495" cx="599.01" cy="131.98" stroke="#365aa3" stroke-opacity="0.25" stroke-width="2"></circle><circle r="116.7" cx="738.5" cy="224.62" stroke="#365aa3" stroke-opacity="0.25" stroke-width="2"></circle><circle r="120.26" cx="87.32" cy="138.89" stroke="#365aa3" stroke-opacity="0.25" stroke-width="2"></circle><circle r="55.755" cx="1198.91" cy="302.27" stroke="#365aa3" stroke-opacity="0.25" stroke-width="2"></circle><circle r="128.165" cx="576.01" cy="490.27" stroke="#365aa3" stroke-opacity="0.25" stroke-width="2"></circle><circle r="103.045" cx="516.26" cy="61.63" stroke="#365aa3" stroke-opacity="0.25" stroke-width="2"></circle><circle r="173.71" cx="107.19" cy="435.01" stroke="#365aa3" stroke-opacity="0.25" stroke-width="2"></circle><circle r="80.965" cx="1423.87" cy="481" stroke="#365aa3" stroke-opacity="0.25" stroke-width="2"></circle><circle r="54.265" cx="38.54" cy="416.99" stroke="#365aa3" stroke-opacity="0.25" stroke-width="2"></circle><circle r="163.11" cx="132.34" cy="227.28" stroke="#365aa3" stroke-opacity="0.25" stroke-width="2"></circle><circle r="156.625" cx="203.59" cy="266.03" stroke="#365aa3" stroke-opacity="0.25" stroke-width="2"></circle><circle r="175.145" cx="1181.04" cy="68.16" stroke="#365aa3" stroke-opacity="0.25" stroke-width="2"></circle><circle r="121.125" cx="605.14" cy="541.4" stroke="#365aa3" stroke-opacity="0.25" stroke-width="2"></circle><circle r="142.755" cx="441.86" cy="391.44" stroke="#365aa3" stroke-opacity="0.25" stroke-width="2"></circle><circle r="121.29" cx="132.74" cy="85.14" stroke="#365aa3" stroke-opacity="0.25" stroke-width="2"></circle><circle r="150.06" cx="47.11" cy="336.02" stroke="#365aa3" stroke-opacity="0.25" stroke-width="2"></circle><circle r="47.02" cx="857.44" cy="115.15" stroke="#365aa3" stroke-opacity="0.25" stroke-width="2"></circle><circle r="65.02" cx="1161.05" cy="6.27" stroke="#365aa3" stroke-opacity="0.25" stroke-width="2"></circle><circle r="134.86" cx="47.33" cy="416.54" stroke="#365aa3" stroke-opacity="0.25" stroke-width="2"></circle><circle r="134.625" cx="1081.27" cy="509.26" stroke="#365aa3" stroke-opacity="0.25" stroke-width="2"></circle><circle r="120.215" cx="1284.23" cy="368.19" stroke="#365aa3" stroke-opacity="0.25" stroke-width="2"></circle><circle r="137.78" cx="50.12" cy="98.33" stroke="#365aa3" stroke-opacity="0.25" stroke-width="2"></circle><circle r="48.705" cx="168.8" cy="276.38" stroke="#365aa3" stroke-opacity="0.25" stroke-width="2"></circle><circle r="169.125" cx="1259.44" cy="6.05" stroke="#365aa3" stroke-opacity="0.25" stroke-width="2"></circle></g><defs><clipPath id="SvgjsClipPath1000"><rect width="1440" height="560" x="0" y="0"></rect></clipPath></defs></svg>