<?xml version="1.0" encoding="utf-8"?>
<!-- Generator: Adobe Illustrator 27.2.0, SVG Export Plug-In . SVG Version: 6.00 Build 0)  -->
<svg version="1.1" id="Layer_1" xmlns="http://www.w3.org/2000/svg" xmlns:xlink="http://www.w3.org/1999/xlink" x="0px" y="0px"
	 viewBox="0 0 512 512" style="enable-background:new 0 0 512 512;" xml:space="preserve">
<style type="text/css">
	.st0{fill:#FFFFFF;}
</style>
<g transform="translate(0.000000,512.000000) scale(0.100000,-0.100000)">
	<path class="st0" d="M2245,5111c-50-13-112-49-151-88c-65-64-81-117-111-354c-14-118-31-219-36-226s-25-17-45-23
		c-20-7-83-32-140-57l-103-46l-37,30c-173,137-304,234-342,253c-61,31-159,38-236,15c-57-16-67-25-291-248c-223-224-232-234-248-291
		c-23-78-16-175,15-236c13-25,76-112,140-195c159-203,148-180,113-250c-17-33-43-94-58-135s-33-80-39-86s-108-23-226-38
		c-238-30-289-46-353-110c-21-20-49-60-65-89l-27-52v-320v-320l26-56c15-31,43-73,64-94c66-66,120-83,347-111c111-13,212-28,223-33
		c12-5,28-30,39-62c10-30,37-93,59-141c27-61,37-92,30-100c-5-7-64-83-130-168s-130-175-143-200c-31-61-38-158-15-236
		c16-57,25-67,248-291c224-223,234-232,291-248c77-23,175-16,236,15c38,19,169,116,342,253l37,30l103-46c57-25,120-50,140-57
		c20-6,40-16,45-23s22-108,36-226c30-238,46-290,112-356c21-21,63-49,94-64l56-26h315h315l56,26c31,15,73,43,94,64
		c67,67,83,120,112,357c14,117,31,218,37,224s45,24,86,39s102,41,135,58c70,35,47,46,250-113c83-64,170-127,195-140
		c61-31,158-38,236-15c57,16,67,25,291,248c223,224,232,234,248,291c23,78,16,175-15,236c-18,35-112,162-273,367c-6,9,5,45,36,115
		c25,57,50,120,57,140c6,20,16,40,23,45s108,22,226,36c238,30,290,46,356,112c21,21,49,63,64,94l26,56v315v315l-26,56
		c-15,31-43,73-64,94c-66,66-119,82-359,114c-119,15-220,32-225,37s-21,43-36,84s-41,102-58,135c-35,70-46,47,113,250
		c64,83,127,170,140,195c31,61,38,158,15,236c-16,57-25,67-248,291c-224,223-234,232-291,248c-78,23-175,16-236-15
		c-25-13-112-76-195-140c-203-159-180-148-250-113c-33,17-94,43-135,58s-80,33-86,39s-23,107-37,225c-30,238-46,289-112,356
		c-21,21-63,49-94,64l-56,26l-300,2C2410,5118,2262,5115,2245,5111z M2839,4897c54-27,61-49,96-322c25-198,37-263,51-282
		c14-18,54-37,140-68c66-23,169-66,229-95c95-46,112-51,139-43c17,5,123,81,236,169c275,214,231,218,487-39c257-256,254-210,36-491
		c-89-115-165-223-169-238c-4-23,6-53,46-136c29-58,70-155,92-215c47-132,52-143,80-158c12-7,137-27,277-45c269-34,291-41,318-95
		c18-34,18-524,0-558c-27-54-49-61-319-95c-140-19-264-39-276-45c-28-15-34-26-81-159c-21-61-63-158-91-217c-47-95-52-110-43-139
		c5-17,81-123,169-236c214-275,218-231-39-487c-256-257-210-254-491-36c-115,89-223,165-238,169c-23,4-53-6-136-46
		c-58-29-156-70-217-92c-60-22-120-46-132-54c-31-20-39-57-72-323c-31-247-38-271-92-298c-34-18-524-18-558,0c-54,28-61,49-95,321
		c-26,201-37,263-52,283c-14,18-53,37-139,68c-67,23-169,66-228,94c-84,41-113,51-136,46c-16-3-116-74-222-156
		c-107-83-207-158-222-166c-59-30-78-17-287,192c-253,254-250,209-33,489c89,115,165,222,168,237c5,21-6,54-45,134
		c-28,59-70,157-91,218c-22,62-47,122-55,134c-20,31-57,39-323,72c-247,31-271,38-298,92c-18,34-18,524,0,558c27,54,51,61,298,92
		c266,33,303,41,323,72c8,12,32,72,54,132c22,61,63,159,92,218c47,96,52,112,43,140c-5,18-81,124-169,237c-214,275-218,231,39,487
		c256,257,212,253,487,39c113-88,219-164,236-169c28-9,45-4,146,46c62,30,160,71,218,92c58,20,115,43,127,50c31,21,39,58,72,324
		c31,247,38,271,92,298c17,9,96,13,279,13S2822,4906,2839,4897z"/>
	<path class="st0" d="M2438,3620c-369-46-683-275-843-613c-192-407-102-894,223-1209c321-310,792-392,1187-204
		c238,112,409,283,520,519c259,548,2,1199-568,1436C2810,3610,2593,3640,2438,3620z M2730,3396c221-47,412-177,539-366
		c97-145,141-294,141-474c-1-289-137-541-381-705c-93-63-217-113-325-132c-39-7-117-10-188-7c-146,6-264,41-391,116
		c-95,56-224,180-283,272c-49,75-98,196-118,290c-18,84-18,256,0,340c71,333,328,592,661,665C2465,3413,2649,3413,2730,3396z"/>
</g>
</svg>
