<svg xmlns="http://www.w3.org/2000/svg" version="1.1" xmlns:xlink="http://www.w3.org/1999/xlink" xmlns:svgjs="http://svgjs.com/svgjs" width="1440" height="560" preserveAspectRatio="none" viewBox="0 0 1440 560"><g mask="url(&quot;#SvgjsMask1000&quot;)" fill="none"><rect width="1440" height="560" x="0" y="0" fill="#0e2a47"></rect><path d="M101.30648052047317 328.59641585070085L210.40267421708893 445.5877603537437 327.3940187201318 336.4915666571279 218.297825023516 219.50022215408507z" fill="rgba(28, 83, 142, 0.4)" class="triangle-float2"></path><path d="M711.8264482541583 98.71742428879196L719.8045519847174 253.77601483615996 834.9057894041669 181.8527792059067z" fill="rgba(28, 83, 142, 0.4)" class="triangle-float2"></path><path d="M91.258,346.024C114.777,345.192,132.703,328.128,145.165,308.165C158.648,286.566,171.319,260.22,158.586,238.17C145.854,216.121,116.677,213.348,91.258,214.811C68.804,216.103,48.061,226.149,36.133,245.216C23.389,265.588,18.79,291.141,30.319,312.225C42.264,334.068,66.378,346.904,91.258,346.024" fill="rgba(28, 83, 142, 0.4)" class="triangle-float3"></path><path d="M500.703,44.275C515.813,43.809,530.387,38.284,538.703,25.66C547.96,11.606,551.817,-6.365,543.808,-21.166C535.469,-36.578,518.205,-45.418,500.703,-44.568C484.469,-43.78,472.459,-31.353,464.287,-17.304C456.056,-3.154,450.08,14.047,458.413,28.137C466.645,42.056,484.54,44.774,500.703,44.275" fill="rgba(28, 83, 142, 0.4)" class="triangle-float3"></path><path d="M756.006,665.197C803.189,664.754,845.168,639.635,870.919,600.096C899.63,556.012,917.842,501.022,893.208,454.537C867.342,405.728,811.245,383.351,756.006,383.252C700.578,383.153,644.364,405.315,617.953,454.046C592.503,501.004,608.068,557.583,637.296,602.287C663.562,642.461,708.01,665.647,756.006,665.197" fill="rgba(28, 83, 142, 0.4)" class="triangle-float3"></path><path d="M490.482,170.798C524.472,169.424,549.869,143.679,567.211,114.414C584.999,84.397,596.894,48.903,581.176,17.752C564.072,-16.147,528.442,-38.508,490.482,-37.658C453.774,-36.836,424.403,-10.429,406.558,21.66C389.278,52.732,384.767,90.097,402.203,121.082C419.954,152.627,454.315,172.26,490.482,170.798" fill="rgba(28, 83, 142, 0.4)" class="triangle-float1"></path></g><defs><mask id="SvgjsMask1000"><rect width="1440" height="560" fill="#ffffff"></rect></mask><style>
            @keyframes float1 {
                0%{transform: translate(0, 0)}
                50%{transform: translate(-10px, 0)}
                100%{transform: translate(0, 0)}
            }

            .triangle-float1 {
                animation: float1 5s infinite;
            }

            @keyframes float2 {
                0%{transform: translate(0, 0)}
                50%{transform: translate(-5px, -5px)}
                100%{transform: translate(0, 0)}
            }

            .triangle-float2 {
                animation: float2 4s infinite;
            }

            @keyframes float3 {
                0%{transform: translate(0, 0)}
                50%{transform: translate(0, -10px)}
                100%{transform: translate(0, 0)}
            }

            .triangle-float3 {
                animation: float3 6s infinite;
            }
        </style></defs></svg>