<?xml version="1.0" encoding="utf-8"?>
<!-- Generator: Adobe Illustrator 27.2.0, SVG Export Plug-In . SVG Version: 6.00 Build 0)  -->
<svg version="1.1" id="Layer_1" xmlns="http://www.w3.org/2000/svg" xmlns:xlink="http://www.w3.org/1999/xlink" x="0px" y="0px"
	 viewBox="0 0 512 512" style="enable-background:new 0 0 512 512;" xml:space="preserve">
<style type="text/css">
	.st0{fill:#FFFFFF;}
</style>
<path class="st0" d="M231.5,1.1c-80,8.3-150.1,51.8-192.7,119.6c-60.4,96.1-49,223.7,27.4,306.8c42.5,46.2,95.1,73.7,158.3,82.7
	c11.9,1.7,51.2,1.6,63.5-0.1c62.2-8.6,114.8-36,157.2-82c34.9-37.8,57.2-86.2,65-140.6c1.7-11.8,1.7-51.2,0-63
	c-8.3-58.3-32.1-107.3-71.5-147.4C398.3,36,348.8,10.9,291.5,2.4C279.2,0.6,243.7-0.2,231.5,1.1z M278.1,36
	c105.2,10.7,187.6,93.3,197.8,198.4c7.1,72.6-23.7,145.5-81.5,192.7c-44.7,36.5-103.2,54.4-160,48.8C147.7,467.5,73.9,409,46.6,327
	c-15.4-46.1-15.4-93.8,0-139.9C79,89.8,177.1,25.9,278.1,36z"/>
<path class="st0" d="M243.3,122.5c-10.8,2.3-18.9,7-27.8,16c-18.3,18.3-22.4,41.8-11.4,65.3c7.4,16,22.6,27.9,40.4,31.7
	c8.8,1.9,14.2,1.9,23,0c11.4-2.4,20.7-7.5,29-15.8c18-18,22.3-43.4,11.4-66.3c-4.6-9.6-16.8-21.9-26.2-26.3
	C269.5,121.3,256.2,119.7,243.3,122.5z"/>
<path class="st0" d="M215.8,253c-26.7,4.5-49.4,21.7-60.7,46.1c-6.7,14.4-7.5,19.5-7.6,43.9c0,21.2,0,21.6,2.6,27.1
	c3.7,7.9,9,13.3,16.7,17.1l6.7,3.3H256h82.5l6.7-3.3c7.7-3.8,13-9.2,16.7-17.1c2.6-5.5,2.6-5.8,2.5-27.6c-0.1-21-0.2-22.4-2.8-31
	c-9.5-31.3-34.2-53.4-65.6-58.4C288.5,251.9,223,251.8,215.8,253z"/>
</svg>
