<?xml version="1.0" encoding="utf-8"?>
<!-- Generator: Adobe Illustrator 27.2.0, SVG Export Plug-In . SVG Version: 6.00 Build 0)  -->
<svg version="1.1" id="Layer_1" xmlns="http://www.w3.org/2000/svg" xmlns:xlink="http://www.w3.org/1999/xlink" x="0px" y="0px"
	 viewBox="0 0 512 512" style="enable-background:new 0 0 512 512;" xml:space="preserve">
<style type="text/css">
	.st0{fill:#FFFFFF;}
</style>
<g transform="translate(0.000000,512.000000) scale(0.100000,-0.100000)">
	<path class="st0" d="M2254.3,5101.2c-709-88.2-1333-454.1-1766.4-1036.8c-79.5-106.7-209.1-331.1-263.5-456.3
		C74.1,3268.3,0,2919.8,0,2558.3C0,1358.1,829.8,323.6,2006,57.8c257-57.7,580.5-74.1,849.5-42.5
		C3841,130.8,4673.1,808.2,4988.9,1753.5c404,1207.7-152.5,2535.3-1301.4,3102.7c-166.6,81.7-417.1,169.9-587,205.8
		C2850,5116.4,2503.7,5131.7,2254.3,5101.2z M2896.8,4849.6c848.4-126.3,1567.1-719.9,1847-1522.5
		c92.6-264.6,128.5-482.4,128.5-768.9c0-630.6-230.9-1186-678.5-1634.6C3830.1,559.9,3400,343.2,2886,264.8
		c-169.9-26.1-483.5-26.1-653.4,0C1721.8,342.1,1287.2,561,924.6,923.6c-309.3,309.3-507.5,657.8-614.2,1078.1
		c-88.2,350.7-88.2,762.3,0,1113c107.8,426.9,325.6,802.6,639.3,1105.4c398.6,383.3,876.7,599,1446.2,651.2
		C2488.5,4880.1,2782.5,4867,2896.8,4849.6z"/>
	<path class="st0" d="M2367.6,4160.2c-327.8-80.6-569.6-351.8-614.2-691.5c-30.5-225.4,47.9-469.4,203.7-637.1
		c113.3-124.2,246.1-206.9,395.3-247.2c89.3-24,304.9-27.2,392.1-5.4c288.6,71.9,524.9,301.7,600.1,585.9
		c32.7,120.9,32.7,294,0,411.7c-46.8,166.6-143.8,320.2-266.8,420.4c-83.9,68.6-238.5,143.8-340.9,166.6
		C2634.4,4186.4,2466.7,4184.2,2367.6,4160.2z M2688.8,3935.9c188.4-44.7,351.8-189.5,417.1-370.3c28.3-79.5,38.1-227.6,20.7-312.6
		c-41.4-197.1-200.4-373.5-392.1-434.5c-92.6-29.4-241.8-31.6-333.2-5.4c-199.3,57.7-367,237.4-409.5,440
		c-17.4,84.9-7.6,233.1,20.7,312.6C2111.6,3840.1,2407.9,4001.2,2688.8,3935.9z"/>
	<path class="st0" d="M1845.9,2317.6c-411.7-51.2-768.9-363.7-876.7-766.7c-29.4-110-41.4-275.5-22.9-319.1
		c29.4-70.8,132.9-87.1,186.2-29.4c19.6,20.7,26.1,44.7,33.8,127.4c32.7,330,218.9,588.1,512.9,705.7
		c137.2,54.5,166.6,55.5,923.5,52.3c645.8-3.3,706.8-5.4,762.3-24c339.8-113.3,552.1-379,587-734c7.6-82.8,14.2-106.7,33.8-127.4
		c51.2-55.5,148.1-43.6,181.9,20.7c13.1,26.1,16.3,54.5,10.9,137.2c-15.2,253.7-128.5,494.4-320.2,675.2
		c-168.8,161.2-367,253.7-602.2,283.2C3145.1,2331.8,1957,2330.7,1845.9,2317.6z"/>
</g>
</svg>
