<?xml version="1.0" encoding="utf-8"?>
<!-- Generator: Adobe Illustrator 27.2.0, SVG Export Plug-In . SVG Version: 6.00 Build 0)  -->
<svg version="1.1" id="Layer_1" xmlns="http://www.w3.org/2000/svg" xmlns:xlink="http://www.w3.org/1999/xlink" x="0px" y="0px"
	 viewBox="0 0 512 512" style="enable-background:new 0 0 512 512;" xml:space="preserve">
<style type="text/css">
	.st0{fill:#FFFFFF;}
</style>
<path class="st0" d="M237.7,1c-23.2,3.7-43.8,13-97.7,44c-63.8,36.7-82.2,49.5-96.1,66.6c-15.4,18.9-23.6,38.9-27.1,66.7
	c-1.9,14.6-1.8,140.1,0,154.2c5.6,42.3,20.9,67.4,56.7,93c17,12.2,85,51.8,114,66.5c28.5,14.4,48.8,19.8,71,18.6
	c29.8-1.4,46.9-8.7,118-49.9c51.2-29.6,64-38.3,79.1-53.2c19.1-18.8,29.5-39.3,34-67.2c2.3-14.7,3.4-40.7,3.4-84.8
	c0-60.8-1.6-82.6-7.5-102.8c-5-17.4-14.4-33.6-26.9-46.6c-15.9-16.5-31.9-27.2-93.6-62.6c-61.1-35.1-79-42.3-107.5-43
	C249.8,0.3,240.9,0.5,237.7,1z M270,76.5c24.3,3.6,44.7,14,62,31.5c14.1,14.2,23.6,30.6,28.8,49.8c2.3,8.8,2.6,11.4,2.6,27.7
	s-0.3,18.9-2.7,27.8c-8.6,31.9-30,57.8-59.4,71.9c-13.8,6.7-26.6,9.8-42.4,10.5c-37.4,1.7-71.4-14.4-93.8-44.2
	c-6.7-8.9-14.4-24.6-17.5-35.7c-12.5-44,3.5-91.3,40.3-118.8C211.1,79.6,241.2,72.1,270,76.5z M350,352.4
	c17.7,5.9,30.9,14.3,42,26.4c6.9,7.5,15.5,20.6,14.7,22.5c-1,2.5-78.4,47.6-102.4,59.5c-43,21.6-63.5,20.6-111.1-5.1
	c-23.4-12.6-90.7-51.9-93.1-54.2c-0.7-0.7,9.2-15.8,13.6-20.8c13.9-15.6,31.3-25.8,51.3-30.2c5.3-1.1,21.6-1.3,91.5-1.2l85,0.2
	L350,352.4z"/>
</svg>
