<?xml version="1.0" encoding="utf-8"?>
<!-- Generator: Adobe Illustrator 27.2.0, SVG Export Plug-In . SVG Version: 6.00 Build 0)  -->
<svg version="1.1" id="Layer_1" xmlns="http://www.w3.org/2000/svg" xmlns:xlink="http://www.w3.org/1999/xlink" x="0px" y="0px"
	 viewBox="0 0 512 512" style="enable-background:new 0 0 512 512;" xml:space="preserve">
<style type="text/css">
	.st0{fill:#FFFFFF;}
</style>
<g transform="translate(0.000000,512.000000) scale(0.100000,-0.100000)">
	<path class="st0" d="M1766,5110c-416-66-754-363-870-764c-37-127-51-275-36-398c52-452,353-804,790-926c86-24,111-27,270-27
		c198,0,273,15,430,84c484,212,741,761,594,1267c-105,363-396,646-759,740C2073,5114,1870,5126,1766,5110z M2129,4879
		c311-78,563-342,626-658c23-111,16-294-14-399c-82-282-301-502-586-588c-80-24-106-27-235-27s-155,3-235,27
		c-232,70-419,226-525,437c-58,115-81,204-87,345c-11,248,64,449,236,627C1522,4865,1831,4954,2129,4879z"/>
	<path class="st0" d="M3370,2754c-89-38-117-95-136-268c-7-72-14-141-14-153c0-17-14-30-57-52c-32-16-74-40-94-54l-36-24l-142,63
		c-159,72-218,81-289,45c-55-28-71-50-181-240c-107-186-121-227-101-299c15-58,54-99,184-193l111-81l1-111v-112l-125-90
		c-134-96-165-133-177-212c-9-59,6-96,119-291c103-179,129-209,201-232c61-19,120-6,265,60l135,61l25-19c14-10,56-35,92-55l66-37
		l16-157c20-191,38-229,127-276l55-28l226,3l226,3l41,28c76,50,92,86,109,249c19,188,18,183,54,198c17,7,58,31,91,52l60,39l136-62
		c84-39,155-64,185-67c60-6,123,17,164,61c30,32,177,280,214,360c35,77,16,180-42,234c-13,12-73,57-132,100l-109,78l-1,111l-2,111
		l119,84c126,89,156,121,176,183c24,75,9,121-96,303c-104,182-129,215-186,244c-69,35-126,27-284-44l-141-63l-94,57l-94,56l-13,134
		c-16,167-25,200-64,245c-62,70-80,74-330,74C3452,2769,3398,2766,3370,2754z M3803,2498c35-354,25-329,151-387c44-21,109-59,144-85
		c92-69,98-68,259,4c76,34,152,68,170,76l32,14l84-148l84-147l-66-47c-203-146-232-170-242-195c-8-20-8-53,0-114c8-62,8-108,0-168
		c-16-118-14-122,161-248l147-106l-84-147l-85-148l-164,74c-90,41-177,74-192,74c-17,0-53-18-93-46c-35-25-106-67-157-92
		c-63-31-98-54-106-71c-8-14-21-102-31-196c-9-93-19-173-22-177c-2-5-78-8-168-8c-163,0-165,0-169,23c-3,12-12,94-20,181
		c-11,105-21,167-31,183c-9,13-50,39-91,58s-94,47-117,63s-60,41-81,55c-21,15-51,27-66,27s-98-31-184-70c-85-38-160-70-165-70
		c-12,0-173,279-166,289c2,5,66,53,141,106c74,54,141,107,148,119c9,15,12,73,11,216c-1,107-5,202-9,210c-3,8-72,62-151,120
		c-84,60-143,110-141,117c5,12,155,275,161,281c1,1,74-30,161-70c101-46,172-72,194-72c26,0,56,15,119,58c46,31,114,71,152,88
		c37,17,75,41,83,53c10,16,21,82,32,192c9,92,17,174,20,181c2,9,46,12,172,12h169L3803,2498z"/>
	<path class="st0" d="M3525,1910c-64-13-138-44-199-84c-161-108-256-322-226-510c21-129,64-215,155-307c102-103,228-153,380-152
		c224,2,415,138,492,351c107,294-73,625-379,697C3681,1921,3590,1923,3525,1910z M3767,1670c237-116,236-453-3-571
		c-41-20-64-24-139-24s-98,4-135,24c-109,56-171,150-178,271c-5,96,21,170,82,234C3498,1711,3633,1735,3767,1670z"/>
	<path class="st0" d="M793,2545c-201-36-365-124-513-274c-129-130-211-275-257-457c-16-62-18-125-18-591V700l28-27l27-28h899h899
		l26,24c35,33,44,85,21,127c-10,18-25,36-34,41c-9,4-385,10-836,13l-820,5v425c0,367,3,434,18,492c57,227,212,414,423,509
		c140,64,120,62,910,68c687,6,723,7,743,25c33,30,45,78,27,119c-29,70,3,67-773,66C1037,2558,847,2555,793,2545z"/>
</g>
</svg>
