<svg xmlns="http://www.w3.org/2000/svg" version="1.1" xmlns:xlink="http://www.w3.org/1999/xlink" xmlns:svgjs="http://svgjs.com/svgjs" width="1440" height="560" preserveAspectRatio="none" viewBox="0 0 1440 560"><g mask="url(&quot;#SvgjsMask1000&quot;)" fill="none"><rect width="1440" height="560" x="0" y="0" fill="#0e2a47"></rect><path d="M-42.19 398.86L-42.19 398.86" stroke="#132e65" stroke-width="1.5"></path><path d="M-42.19 398.86L-47.96 505.71" stroke="#132e65" stroke-width="1.5"></path><path d="M-42.19 398.86L56.28 353.78" stroke="#132e65" stroke-width="1.5"></path><path d="M-47.96 505.71L-47.96 505.71" stroke="#132e65" stroke-width="1.5"></path><path d="M-47.96 505.71L95.51 515.57" stroke="#132e65" stroke-width="1.5"></path><path d="M-47.96 505.71L56.28 353.78" stroke="#132e65" stroke-width="1.5"></path><path d="M-47.96 505.71L-107.42 690.95" stroke="#132e65" stroke-width="1.5"></path><path d="M-107.42 690.95L-107.42 690.95" stroke="#132e65" stroke-width="1.5"></path><path d="M-107.42 690.95L69.43 670.86" stroke="#132e65" stroke-width="1.5"></path><path d="M-107.42 690.95L95.51 515.57" stroke="#132e65" stroke-width="1.5"></path><path d="M-107.42 690.95L-42.19 398.86" stroke="#132e65" stroke-width="1.5"></path><path d="M56.28 353.78L56.28 353.78" stroke="#132e65" stroke-width="1.5"></path><path d="M95.51 515.57L95.51 515.57" stroke="#132e65" stroke-width="1.5"></path><path d="M95.51 515.57L201.32 498.07" stroke="#132e65" stroke-width="1.5"></path><path d="M95.51 515.57L188.78 637.58" stroke="#132e65" stroke-width="1.5"></path><path d="M95.51 515.57L69.43 670.86" stroke="#132e65" stroke-width="1.5"></path><path d="M69.43 670.86L69.43 670.86" stroke="#132e65" stroke-width="1.5"></path><path d="M69.43 670.86L188.78 637.58" stroke="#132e65" stroke-width="1.5"></path><path d="M69.43 670.86L-47.96 505.71" stroke="#132e65" stroke-width="1.5"></path><path d="M69.43 670.86L201.32 498.07" stroke="#132e65" stroke-width="1.5"></path><path d="M69.43 670.86L-42.19 398.86" stroke="#132e65" stroke-width="1.5"></path><path d="M207.7 393.85L207.7 393.85" stroke="#132e65" stroke-width="1.5"></path><path d="M207.7 393.85L201.32 498.07" stroke="#132e65" stroke-width="1.5"></path><path d="M207.7 393.85L56.28 353.78" stroke="#132e65" stroke-width="1.5"></path><path d="M207.7 393.85L95.51 515.57" stroke="#132e65" stroke-width="1.5"></path><path d="M201.32 498.07L201.32 498.07" stroke="#132e65" stroke-width="1.5"></path><path d="M201.32 498.07L188.78 637.58" stroke="#132e65" stroke-width="1.5"></path><path d="M201.32 498.07L351.28 520.02" stroke="#132e65" stroke-width="1.5"></path><path d="M201.32 498.07L56.28 353.78" stroke="#132e65" stroke-width="1.5"></path><path d="M188.78 637.58L188.78 637.58" stroke="#132e65" stroke-width="1.5"></path><path d="M410.37 397.46L410.37 397.46" stroke="#132e65" stroke-width="1.5"></path><path d="M410.37 397.46L490.38 362.14" stroke="#132e65" stroke-width="1.5"></path><path d="M410.37 397.46L351.28 520.02" stroke="#132e65" stroke-width="1.5"></path><path d="M410.37 397.46L494.94 545.22" stroke="#132e65" stroke-width="1.5"></path><path d="M410.37 397.46L207.7 393.85" stroke="#132e65" stroke-width="1.5"></path><path d="M351.28 520.02L351.28 520.02" stroke="#132e65" stroke-width="1.5"></path><path d="M351.28 520.02L402.09 646.85" stroke="#132e65" stroke-width="1.5"></path><path d="M351.28 520.02L494.94 545.22" stroke="#132e65" stroke-width="1.5"></path><path d="M351.28 520.02L207.7 393.85" stroke="#132e65" stroke-width="1.5"></path><path d="M402.09 646.85L402.09 646.85" stroke="#132e65" stroke-width="1.5"></path><path d="M402.09 646.85L523.04 650.83" stroke="#132e65" stroke-width="1.5"></path><path d="M402.09 646.85L494.94 545.22" stroke="#132e65" stroke-width="1.5"></path><path d="M402.09 646.85L188.78 637.58" stroke="#132e65" stroke-width="1.5"></path><path d="M490.38 362.14L490.38 362.14" stroke="#132e65" stroke-width="1.5"></path><path d="M490.38 362.14L494.94 545.22" stroke="#132e65" stroke-width="1.5"></path><path d="M490.38 362.14L679.89 397.54" stroke="#132e65" stroke-width="1.5"></path><path d="M494.94 545.22L494.94 545.22" stroke="#132e65" stroke-width="1.5"></path><path d="M494.94 545.22L523.04 650.83" stroke="#132e65" stroke-width="1.5"></path><path d="M494.94 545.22L656.88 552.78" stroke="#132e65" stroke-width="1.5"></path><path d="M523.04 650.83L523.04 650.83" stroke="#132e65" stroke-width="1.5"></path><path d="M523.04 650.83L656.88 552.78" stroke="#132e65" stroke-width="1.5"></path><path d="M523.04 650.83L351.28 520.02" stroke="#132e65" stroke-width="1.5"></path><path d="M523.04 650.83L410.37 397.46" stroke="#132e65" stroke-width="1.5"></path><path d="M691.02 262.46L691.02 262.46" stroke="#132e65" stroke-width="1.5"></path><path d="M691.02 262.46L805.17 241.92" stroke="#132e65" stroke-width="1.5"></path><path d="M691.02 262.46L679.89 397.54" stroke="#132e65" stroke-width="1.5"></path><path d="M691.02 262.46L822.74 370.71" stroke="#132e65" stroke-width="1.5"></path><path d="M691.02 262.46L490.38 362.14" stroke="#132e65" stroke-width="1.5"></path><path d="M691.02 262.46L977.77 210.86" stroke="#132e65" stroke-width="1.5"></path><path d="M691.02 262.46L656.88 552.78" stroke="#132e65" stroke-width="1.5"></path><path d="M679.89 397.54L679.89 397.54" stroke="#132e65" stroke-width="1.5"></path><path d="M679.89 397.54L822.74 370.71" stroke="#132e65" stroke-width="1.5"></path><path d="M679.89 397.54L656.88 552.78" stroke="#132e65" stroke-width="1.5"></path><path d="M679.89 397.54L801.24 533.74" stroke="#132e65" stroke-width="1.5"></path><path d="M656.88 552.78L656.88 552.78" stroke="#132e65" stroke-width="1.5"></path><path d="M656.88 552.78L801.24 533.74" stroke="#132e65" stroke-width="1.5"></path><path d="M805.17 241.92L805.17 241.92" stroke="#132e65" stroke-width="1.5"></path><path d="M805.17 241.92L822.74 370.71" stroke="#132e65" stroke-width="1.5"></path><path d="M805.17 241.92L977.77 210.86" stroke="#132e65" stroke-width="1.5"></path><path d="M805.17 241.92L679.89 397.54" stroke="#132e65" stroke-width="1.5"></path><path d="M805.17 241.92L938.47 79.61" stroke="#132e65" stroke-width="1.5"></path><path d="M822.74 370.71L822.74 370.71" stroke="#132e65" stroke-width="1.5"></path><path d="M801.24 533.74L801.24 533.74" stroke="#132e65" stroke-width="1.5"></path><path d="M801.24 533.74L814.05 680" stroke="#132e65" stroke-width="1.5"></path><path d="M801.24 533.74L957.55 501.81" stroke="#132e65" stroke-width="1.5"></path><path d="M814.05 680L814.05 680" stroke="#132e65" stroke-width="1.5"></path><path d="M814.05 680L941.28 709.73" stroke="#132e65" stroke-width="1.5"></path><path d="M1005.56 -84.49L1005.56 -84.49" stroke="#132e65" stroke-width="1.5"></path><path d="M1005.56 -84.49L1097.39 -81.81" stroke="#132e65" stroke-width="1.5"></path><path d="M1005.56 -84.49L1116.47 48.17" stroke="#132e65" stroke-width="1.5"></path><path d="M1005.56 -84.49L938.47 79.61" stroke="#132e65" stroke-width="1.5"></path><path d="M938.47 79.61L938.47 79.61" stroke="#132e65" stroke-width="1.5"></path><path d="M938.47 79.61L977.77 210.86" stroke="#132e65" stroke-width="1.5"></path><path d="M938.47 79.61L1116.47 48.17" stroke="#132e65" stroke-width="1.5"></path><path d="M938.47 79.61L1097.39 -81.81" stroke="#132e65" stroke-width="1.5"></path><path d="M977.77 210.86L977.77 210.86" stroke="#132e65" stroke-width="1.5"></path><path d="M976.52 385.35L976.52 385.35" stroke="#132e65" stroke-width="1.5"></path><path d="M976.52 385.35L957.55 501.81" stroke="#132e65" stroke-width="1.5"></path><path d="M976.52 385.35L1098.03 342.47" stroke="#132e65" stroke-width="1.5"></path><path d="M976.52 385.35L822.74 370.71" stroke="#132e65" stroke-width="1.5"></path><path d="M976.52 385.35L977.77 210.86" stroke="#132e65" stroke-width="1.5"></path><path d="M976.52 385.35L1126 223.17" stroke="#132e65" stroke-width="1.5"></path><path d="M976.52 385.35L805.17 241.92" stroke="#132e65" stroke-width="1.5"></path><path d="M957.55 501.81L957.55 501.81" stroke="#132e65" stroke-width="1.5"></path><path d="M957.55 501.81L822.74 370.71" stroke="#132e65" stroke-width="1.5"></path><path d="M941.28 709.73L941.28 709.73" stroke="#132e65" stroke-width="1.5"></path><path d="M941.28 709.73L1118.11 663.06" stroke="#132e65" stroke-width="1.5"></path><path d="M1097.39 -81.81L1097.39 -81.81" stroke="#132e65" stroke-width="1.5"></path><path d="M1097.39 -81.81L1116.47 48.17" stroke="#132e65" stroke-width="1.5"></path><path d="M1097.39 -81.81L1258.94 -89.06" stroke="#132e65" stroke-width="1.5"></path><path d="M1097.39 -81.81L1281.65 89.95" stroke="#132e65" stroke-width="1.5"></path><path d="M1116.47 48.17L1116.47 48.17" stroke="#132e65" stroke-width="1.5"></path><path d="M1116.47 48.17L1281.65 89.95" stroke="#132e65" stroke-width="1.5"></path><path d="M1116.47 48.17L1126 223.17" stroke="#132e65" stroke-width="1.5"></path><path d="M1116.47 48.17L1258.94 -89.06" stroke="#132e65" stroke-width="1.5"></path><path d="M1126 223.17L1126 223.17" stroke="#132e65" stroke-width="1.5"></path><path d="M1126 223.17L1240.54 250.81" stroke="#132e65" stroke-width="1.5"></path><path d="M1098.03 342.47L1098.03 342.47" stroke="#132e65" stroke-width="1.5"></path><path d="M1098.03 342.47L1126 223.17" stroke="#132e65" stroke-width="1.5"></path><path d="M1098.03 342.47L1262.78 367.17" stroke="#132e65" stroke-width="1.5"></path><path d="M1098.03 342.47L1240.54 250.81" stroke="#132e65" stroke-width="1.5"></path><path d="M1098.03 342.47L977.77 210.86" stroke="#132e65" stroke-width="1.5"></path><path d="M1118.11 663.06L1118.11 663.06" stroke="#132e65" stroke-width="1.5"></path><path d="M1118.11 663.06L1268.08 640.2" stroke="#132e65" stroke-width="1.5"></path><path d="M1118.11 663.06L957.55 501.81" stroke="#132e65" stroke-width="1.5"></path><path d="M1118.11 663.06L1309.16 526.34" stroke="#132e65" stroke-width="1.5"></path><path d="M1118.11 663.06L814.05 680" stroke="#132e65" stroke-width="1.5"></path><path d="M1118.11 663.06L976.52 385.35" stroke="#132e65" stroke-width="1.5"></path><path d="M1258.94 -89.06L1258.94 -89.06" stroke="#132e65" stroke-width="1.5"></path><path d="M1258.94 -89.06L1281.65 89.95" stroke="#132e65" stroke-width="1.5"></path><path d="M1258.94 -89.06L1005.56 -84.49" stroke="#132e65" stroke-width="1.5"></path><path d="M1258.94 -89.06L1546.37 52.89" stroke="#132e65" stroke-width="1.5"></path><path d="M1258.94 -89.06L1126 223.17" stroke="#132e65" stroke-width="1.5"></path><path d="M1281.65 89.95L1281.65 89.95" stroke="#132e65" stroke-width="1.5"></path><path d="M1281.65 89.95L1240.54 250.81" stroke="#132e65" stroke-width="1.5"></path><path d="M1281.65 89.95L1126 223.17" stroke="#132e65" stroke-width="1.5"></path><path d="M1240.54 250.81L1240.54 250.81" stroke="#132e65" stroke-width="1.5"></path><path d="M1240.54 250.81L1262.78 367.17" stroke="#132e65" stroke-width="1.5"></path><path d="M1262.78 367.17L1262.78 367.17" stroke="#132e65" stroke-width="1.5"></path><path d="M1262.78 367.17L1403 337.77" stroke="#132e65" stroke-width="1.5"></path><path d="M1262.78 367.17L1309.16 526.34" stroke="#132e65" stroke-width="1.5"></path><path d="M1309.16 526.34L1309.16 526.34" stroke="#132e65" stroke-width="1.5"></path><path d="M1309.16 526.34L1408.92 492.35" stroke="#132e65" stroke-width="1.5"></path><path d="M1309.16 526.34L1268.08 640.2" stroke="#132e65" stroke-width="1.5"></path><path d="M1309.16 526.34L1403 337.77" stroke="#132e65" stroke-width="1.5"></path><path d="M1268.08 640.2L1268.08 640.2" stroke="#132e65" stroke-width="1.5"></path><path d="M1268.08 640.2L1462.06 693.87" stroke="#132e65" stroke-width="1.5"></path><path d="M1414.11 252.97L1414.11 252.97" stroke="#132e65" stroke-width="1.5"></path><path d="M1414.11 252.97L1403 337.77" stroke="#132e65" stroke-width="1.5"></path><path d="M1414.11 252.97L1541.57 237.17" stroke="#132e65" stroke-width="1.5"></path><path d="M1414.11 252.97L1240.54 250.81" stroke="#132e65" stroke-width="1.5"></path><path d="M1414.11 252.97L1558.84 365.03" stroke="#132e65" stroke-width="1.5"></path><path d="M1414.11 252.97L1262.78 367.17" stroke="#132e65" stroke-width="1.5"></path><path d="M1414.11 252.97L1281.65 89.95" stroke="#132e65" stroke-width="1.5"></path><path d="M1403 337.77L1403 337.77" stroke="#132e65" stroke-width="1.5"></path><path d="M1403 337.77L1408.92 492.35" stroke="#132e65" stroke-width="1.5"></path><path d="M1403 337.77L1558.84 365.03" stroke="#132e65" stroke-width="1.5"></path><path d="M1403 337.77L1541.57 237.17" stroke="#132e65" stroke-width="1.5"></path><path d="M1408.92 492.35L1408.92 492.35" stroke="#132e65" stroke-width="1.5"></path><path d="M1408.92 492.35L1589.87 545.31" stroke="#132e65" stroke-width="1.5"></path><path d="M1408.92 492.35L1262.78 367.17" stroke="#132e65" stroke-width="1.5"></path><path d="M1462.06 693.87L1462.06 693.87" stroke="#132e65" stroke-width="1.5"></path><path d="M1462.06 693.87L1604.79 663.28" stroke="#132e65" stroke-width="1.5"></path><path d="M1462.06 693.87L1589.87 545.31" stroke="#132e65" stroke-width="1.5"></path><path d="M1606.18 -69.89L1606.18 -69.89" stroke="#132e65" stroke-width="1.5"></path><path d="M1606.18 -69.89L1546.37 52.89" stroke="#132e65" stroke-width="1.5"></path><path d="M1606.18 -69.89L1541.57 237.17" stroke="#132e65" stroke-width="1.5"></path><path d="M1606.18 -69.89L1258.94 -89.06" stroke="#132e65" stroke-width="1.5"></path><path d="M1546.37 52.89L1546.37 52.89" stroke="#132e65" stroke-width="1.5"></path><path d="M1546.37 52.89L1541.57 237.17" stroke="#132e65" stroke-width="1.5"></path><path d="M1546.37 52.89L1414.11 252.97" stroke="#132e65" stroke-width="1.5"></path><path d="M1546.37 52.89L1281.65 89.95" stroke="#132e65" stroke-width="1.5"></path><path d="M1546.37 52.89L1558.84 365.03" stroke="#132e65" stroke-width="1.5"></path><path d="M1546.37 52.89L1403 337.77" stroke="#132e65" stroke-width="1.5"></path><path d="M1541.57 237.17L1541.57 237.17" stroke="#132e65" stroke-width="1.5"></path><path d="M1541.57 237.17L1558.84 365.03" stroke="#132e65" stroke-width="1.5"></path><path d="M1558.84 365.03L1558.84 365.03" stroke="#132e65" stroke-width="1.5"></path><path d="M1589.87 545.31L1589.87 545.31" stroke="#132e65" stroke-width="1.5"></path><path d="M1589.87 545.31L1604.79 663.28" stroke="#132e65" stroke-width="1.5"></path><path d="M1589.87 545.31L1558.84 365.03" stroke="#132e65" stroke-width="1.5"></path><path d="M1604.79 663.28L1604.79 663.28" stroke="#132e65" stroke-width="1.5"></path><path d="M1604.79 663.28L1408.92 492.35" stroke="#132e65" stroke-width="1.5"></path><path d="M1604.79 663.28L1558.84 365.03" stroke="#132e65" stroke-width="1.5"></path><path d="M1604.79 663.28L1309.16 526.34" stroke="#132e65" stroke-width="1.5"></path><path d="M1604.79 663.28L1268.08 640.2" stroke="#132e65" stroke-width="1.5"></path><circle r="5" cx="-42.19" cy="398.86" fill="#132e65"></circle><circle r="5" cx="-47.96" cy="505.71" fill="#132e65"></circle><circle r="5" cx="-107.42" cy="690.95" fill="#132e65"></circle><circle r="5" cx="56.28" cy="353.78" fill="#132e65"></circle><circle r="5" cx="95.51" cy="515.57" fill="#132e65"></circle><circle r="5" cx="69.43" cy="670.86" fill="#132e65"></circle><circle r="5" cx="207.7" cy="393.85" fill="#132e65"></circle><circle r="5" cx="201.32" cy="498.07" fill="#132e65"></circle><circle r="5" cx="188.78" cy="637.58" fill="#132e65"></circle><circle r="5" cx="410.37" cy="397.46" fill="#132e65"></circle><circle r="5" cx="351.28" cy="520.02" fill="#132e65"></circle><circle r="5" cx="402.09" cy="646.85" fill="#132e65"></circle><circle r="5" cx="490.38" cy="362.14" fill="#132e65"></circle><circle r="5" cx="494.94" cy="545.22" fill="#132e65"></circle><circle r="5" cx="523.04" cy="650.83" fill="#132e65"></circle><circle r="5" cx="691.02" cy="262.46" fill="#132e65"></circle><circle r="5" cx="679.89" cy="397.54" fill="#132e65"></circle><circle r="5" cx="656.88" cy="552.78" fill="#132e65"></circle><circle r="5" cx="805.17" cy="241.92" fill="#132e65"></circle><circle r="5" cx="822.74" cy="370.71" fill="#132e65"></circle><circle r="5" cx="801.24" cy="533.74" fill="#132e65"></circle><circle r="5" cx="814.05" cy="680" fill="#132e65"></circle><circle r="5" cx="1005.56" cy="-84.49" fill="#132e65"></circle><circle r="5" cx="938.47" cy="79.61" fill="#132e65"></circle><circle r="5" cx="977.77" cy="210.86" fill="#132e65"></circle><circle r="5" cx="976.52" cy="385.35" fill="#132e65"></circle><circle r="5" cx="957.55" cy="501.81" fill="#132e65"></circle><circle r="5" cx="941.28" cy="709.73" fill="#132e65"></circle><circle r="5" cx="1097.39" cy="-81.81" fill="#132e65"></circle><circle r="5" cx="1116.47" cy="48.17" fill="#132e65"></circle><circle r="5" cx="1126" cy="223.17" fill="#132e65"></circle><circle r="5" cx="1098.03" cy="342.47" fill="#132e65"></circle><circle r="5" cx="1118.11" cy="663.06" fill="#132e65"></circle><circle r="5" cx="1258.94" cy="-89.06" fill="#132e65"></circle><circle r="5" cx="1281.65" cy="89.95" fill="#132e65"></circle><circle r="5" cx="1240.54" cy="250.81" fill="#132e65"></circle><circle r="5" cx="1262.78" cy="367.17" fill="#132e65"></circle><circle r="5" cx="1309.16" cy="526.34" fill="#132e65"></circle><circle r="5" cx="1268.08" cy="640.2" fill="#132e65"></circle><circle r="5" cx="1414.11" cy="252.97" fill="#132e65"></circle><circle r="5" cx="1403" cy="337.77" fill="#132e65"></circle><circle r="5" cx="1408.92" cy="492.35" fill="#132e65"></circle><circle r="5" cx="1462.06" cy="693.87" fill="#132e65"></circle><circle r="5" cx="1606.18" cy="-69.89" fill="#132e65"></circle><circle r="5" cx="1546.37" cy="52.89" fill="#132e65"></circle><circle r="5" cx="1541.57" cy="237.17" fill="#132e65"></circle><circle r="5" cx="1558.84" cy="365.03" fill="#132e65"></circle><circle r="5" cx="1589.87" cy="545.31" fill="#132e65"></circle><circle r="5" cx="1604.79" cy="663.28" fill="#132e65"></circle><path d="M-107.03 638.08L-107.03 638.08" stroke="hsl(228.5, 77.2%, 51.5%)" stroke-width="1.5"></path><path d="M-107.03 638.08L-48.17 497.77" stroke="hsl(228.5, 77.2%, 51.5%)" stroke-width="1.5"></path><path d="M-107.03 638.08L96.73 693.05" stroke="hsl(228.5, 77.2%, 51.5%)" stroke-width="1.5"></path><path d="M-107.03 638.08L90.35 554.65" stroke="hsl(228.5, 77.2%, 51.5%)" stroke-width="1.5"></path><path d="M-107.03 638.08L258.07 655.02" stroke="hsl(228.5, 77.2%, 51.5%)" stroke-width="1.5"></path><path d="M-107.03 638.08L337.5 646" stroke="hsl(228.5, 77.2%, 51.5%)" stroke-width="1.5"></path><path d="M96.73 693.05L96.73 693.05" stroke="hsl(228.5, 77.2%, 51.5%)" stroke-width="1.5"></path><path d="M96.73 693.05L90.35 554.65" stroke="hsl(228.5, 77.2%, 51.5%)" stroke-width="1.5"></path><path d="M677.26 398.32L677.26 398.32" stroke="hsl(228.5, 77.2%, 51.5%)" stroke-width="1.5"></path><path d="M677.26 398.32L833.27 355.53" stroke="hsl(228.5, 77.2%, 51.5%)" stroke-width="1.5"></path><path d="M677.26 398.32L829.61 542.68" stroke="hsl(228.5, 77.2%, 51.5%)" stroke-width="1.5"></path><path d="M677.26 398.32L501.33 533.18" stroke="hsl(228.5, 77.2%, 51.5%)" stroke-width="1.5"></path><path d="M677.26 398.32L394.35 510.84" stroke="hsl(228.5, 77.2%, 51.5%)" stroke-width="1.5"></path><path d="M677.26 398.32L985.45 378.4" stroke="hsl(228.5, 77.2%, 51.5%)" stroke-width="1.5"></path><path d="M829.61 542.68L829.61 542.68" stroke="hsl(228.5, 77.2%, 51.5%)" stroke-width="1.5"></path><path d="M829.61 542.68L813.48 690.67" stroke="hsl(228.5, 77.2%, 51.5%)" stroke-width="1.5"></path><path d="M829.61 542.68L946.47 653.9" stroke="hsl(228.5, 77.2%, 51.5%)" stroke-width="1.5"></path><path d="M829.61 542.68L1010.45 552.91" stroke="hsl(228.5, 77.2%, 51.5%)" stroke-width="1.5"></path><path d="M946.47 653.9L946.47 653.9" stroke="hsl(228.5, 77.2%, 51.5%)" stroke-width="1.5"></path><path d="M946.47 653.9L1010.45 552.91" stroke="hsl(228.5, 77.2%, 51.5%)" stroke-width="1.5"></path><path d="M946.47 653.9L813.48 690.67" stroke="hsl(228.5, 77.2%, 51.5%)" stroke-width="1.5"></path><path d="M946.47 653.9L1143.54 645.1" stroke="hsl(228.5, 77.2%, 51.5%)" stroke-width="1.5"></path><path d="M946.47 653.9L1103.15 491.6" stroke="hsl(228.5, 77.2%, 51.5%)" stroke-width="1.5"></path><path d="M946.47 653.9L985.45 378.4" stroke="hsl(228.5, 77.2%, 51.5%)" stroke-width="1.5"></path><path d="M1301.97 235.81L1301.97 235.81" stroke="hsl(228.5, 77.2%, 51.5%)" stroke-width="1.5"></path><path d="M1301.97 235.81L1403.93 221.15" stroke="hsl(228.5, 77.2%, 51.5%)" stroke-width="1.5"></path><path d="M1301.97 235.81L1238.41 102.26" stroke="hsl(228.5, 77.2%, 51.5%)" stroke-width="1.5"></path><path d="M1301.97 235.81L1398.25 104.59" stroke="hsl(228.5, 77.2%, 51.5%)" stroke-width="1.5"></path><path d="M1301.97 235.81L1283.89 410.31" stroke="hsl(228.5, 77.2%, 51.5%)" stroke-width="1.5"></path><path d="M1301.97 235.81L1158.65 97.06" stroke="hsl(228.5, 77.2%, 51.5%)" stroke-width="1.5"></path><path d="M1301.97 235.81L1142.7 368.92" stroke="hsl(228.5, 77.2%, 51.5%)" stroke-width="1.5"></path><path d="M1597.85 544.18L1597.85 544.18" stroke="hsl(228.5, 77.2%, 51.5%)" stroke-width="1.5"></path><path d="M1597.85 544.18L1546.27 683.21" stroke="hsl(228.5, 77.2%, 51.5%)" stroke-width="1.5"></path><path d="M1597.85 544.18L1608.03 362.6" stroke="hsl(228.5, 77.2%, 51.5%)" stroke-width="1.5"></path><path d="M1597.85 544.18L1409.73 493.46" stroke="hsl(228.5, 77.2%, 51.5%)" stroke-width="1.5"></path><path d="M1597.85 544.18L1277.01 491.38" stroke="hsl(228.5, 77.2%, 51.5%)" stroke-width="1.5"></path><path d="M1597.85 544.18L1545.85 213.89" stroke="hsl(228.5, 77.2%, 51.5%)" stroke-width="1.5"></path><path d="M-48.17 497.77L-48.17 497.77" stroke="hsl(228.5, 77.2%, 51.5%)" stroke-width="1.5"></path><path d="M-48.17 497.77L90.35 554.65" stroke="hsl(228.5, 77.2%, 51.5%)" stroke-width="1.5"></path><path d="M-48.17 497.77L96.73 693.05" stroke="hsl(228.5, 77.2%, 51.5%)" stroke-width="1.5"></path><path d="M90.35 554.65L90.35 554.65" stroke="hsl(228.5, 77.2%, 51.5%)" stroke-width="1.5"></path><path d="M90.35 554.65L258.07 655.02" stroke="hsl(228.5, 77.2%, 51.5%)" stroke-width="1.5"></path><path d="M90.35 554.65L337.5 646" stroke="hsl(228.5, 77.2%, 51.5%)" stroke-width="1.5"></path><path d="M90.35 554.65L394.35 510.84" stroke="hsl(228.5, 77.2%, 51.5%)" stroke-width="1.5"></path><path d="M258.07 655.02L258.07 655.02" stroke="hsl(228.5, 77.2%, 51.5%)" stroke-width="1.5"></path><path d="M258.07 655.02L337.5 646" stroke="hsl(228.5, 77.2%, 51.5%)" stroke-width="1.5"></path><path d="M258.07 655.02L96.73 693.05" stroke="hsl(228.5, 77.2%, 51.5%)" stroke-width="1.5"></path><path d="M258.07 655.02L394.35 510.84" stroke="hsl(228.5, 77.2%, 51.5%)" stroke-width="1.5"></path><path d="M258.07 655.02L501.53 708.92" stroke="hsl(228.5, 77.2%, 51.5%)" stroke-width="1.5"></path><path d="M394.35 510.84L394.35 510.84" stroke="hsl(228.5, 77.2%, 51.5%)" stroke-width="1.5"></path><path d="M394.35 510.84L501.33 533.18" stroke="hsl(228.5, 77.2%, 51.5%)" stroke-width="1.5"></path><path d="M394.35 510.84L337.5 646" stroke="hsl(228.5, 77.2%, 51.5%)" stroke-width="1.5"></path><path d="M394.35 510.84L501.53 708.92" stroke="hsl(228.5, 77.2%, 51.5%)" stroke-width="1.5"></path><path d="M337.5 646L337.5 646" stroke="hsl(228.5, 77.2%, 51.5%)" stroke-width="1.5"></path><path d="M501.33 533.18L501.33 533.18" stroke="hsl(228.5, 77.2%, 51.5%)" stroke-width="1.5"></path><path d="M501.33 533.18L501.53 708.92" stroke="hsl(228.5, 77.2%, 51.5%)" stroke-width="1.5"></path><path d="M501.33 533.18L337.5 646" stroke="hsl(228.5, 77.2%, 51.5%)" stroke-width="1.5"></path><path d="M501.33 533.18L651.86 711.63" stroke="hsl(228.5, 77.2%, 51.5%)" stroke-width="1.5"></path><path d="M501.53 708.92L501.53 708.92" stroke="hsl(228.5, 77.2%, 51.5%)" stroke-width="1.5"></path><path d="M501.53 708.92L651.86 711.63" stroke="hsl(228.5, 77.2%, 51.5%)" stroke-width="1.5"></path><path d="M501.53 708.92L337.5 646" stroke="hsl(228.5, 77.2%, 51.5%)" stroke-width="1.5"></path><path d="M651.86 711.63L651.86 711.63" stroke="hsl(228.5, 77.2%, 51.5%)" stroke-width="1.5"></path><path d="M651.86 711.63L813.48 690.67" stroke="hsl(228.5, 77.2%, 51.5%)" stroke-width="1.5"></path><path d="M833.27 355.53L833.27 355.53" stroke="hsl(228.5, 77.2%, 51.5%)" stroke-width="1.5"></path><path d="M833.27 355.53L985.45 378.4" stroke="hsl(228.5, 77.2%, 51.5%)" stroke-width="1.5"></path><path d="M833.27 355.53L829.61 542.68" stroke="hsl(228.5, 77.2%, 51.5%)" stroke-width="1.5"></path><path d="M833.27 355.53L1010.45 552.91" stroke="hsl(228.5, 77.2%, 51.5%)" stroke-width="1.5"></path><path d="M833.27 355.53L1103.15 491.6" stroke="hsl(228.5, 77.2%, 51.5%)" stroke-width="1.5"></path><path d="M833.27 355.53L1142.7 368.92" stroke="hsl(228.5, 77.2%, 51.5%)" stroke-width="1.5"></path><path d="M813.48 690.67L813.48 690.67" stroke="hsl(228.5, 77.2%, 51.5%)" stroke-width="1.5"></path><path d="M813.48 690.67L1010.45 552.91" stroke="hsl(228.5, 77.2%, 51.5%)" stroke-width="1.5"></path><path d="M813.48 690.67L501.53 708.92" stroke="hsl(228.5, 77.2%, 51.5%)" stroke-width="1.5"></path><path d="M813.48 690.67L677.26 398.32" stroke="hsl(228.5, 77.2%, 51.5%)" stroke-width="1.5"></path><path d="M985.45 378.4L985.45 378.4" stroke="hsl(228.5, 77.2%, 51.5%)" stroke-width="1.5"></path><path d="M985.45 378.4L1142.7 368.92" stroke="hsl(228.5, 77.2%, 51.5%)" stroke-width="1.5"></path><path d="M985.45 378.4L1103.15 491.6" stroke="hsl(228.5, 77.2%, 51.5%)" stroke-width="1.5"></path><path d="M1010.45 552.91L1010.45 552.91" stroke="hsl(228.5, 77.2%, 51.5%)" stroke-width="1.5"></path><path d="M1010.45 552.91L1103.15 491.6" stroke="hsl(228.5, 77.2%, 51.5%)" stroke-width="1.5"></path><path d="M1158.65 97.06L1158.65 97.06" stroke="hsl(228.5, 77.2%, 51.5%)" stroke-width="1.5"></path><path d="M1158.65 97.06L1238.41 102.26" stroke="hsl(228.5, 77.2%, 51.5%)" stroke-width="1.5"></path><path d="M1158.65 97.06L1266.05 -94.21" stroke="hsl(228.5, 77.2%, 51.5%)" stroke-width="1.5"></path><path d="M1142.7 368.92L1142.7 368.92" stroke="hsl(228.5, 77.2%, 51.5%)" stroke-width="1.5"></path><path d="M1142.7 368.92L1103.15 491.6" stroke="hsl(228.5, 77.2%, 51.5%)" stroke-width="1.5"></path><path d="M1142.7 368.92L1283.89 410.31" stroke="hsl(228.5, 77.2%, 51.5%)" stroke-width="1.5"></path><path d="M1142.7 368.92L1277.01 491.38" stroke="hsl(228.5, 77.2%, 51.5%)" stroke-width="1.5"></path><path d="M1103.15 491.6L1103.15 491.6" stroke="hsl(228.5, 77.2%, 51.5%)" stroke-width="1.5"></path><path d="M1103.15 491.6L1143.54 645.1" stroke="hsl(228.5, 77.2%, 51.5%)" stroke-width="1.5"></path><path d="M1143.54 645.1L1143.54 645.1" stroke="hsl(228.5, 77.2%, 51.5%)" stroke-width="1.5"></path><path d="M1143.54 645.1L1256.94 705" stroke="hsl(228.5, 77.2%, 51.5%)" stroke-width="1.5"></path><path d="M1266.05 -94.21L1266.05 -94.21" stroke="hsl(228.5, 77.2%, 51.5%)" stroke-width="1.5"></path><path d="M1266.05 -94.21L1395.99 -44.66" stroke="hsl(228.5, 77.2%, 51.5%)" stroke-width="1.5"></path><path d="M1266.05 -94.21L1238.41 102.26" stroke="hsl(228.5, 77.2%, 51.5%)" stroke-width="1.5"></path><path d="M1238.41 102.26L1238.41 102.26" stroke="hsl(228.5, 77.2%, 51.5%)" stroke-width="1.5"></path><path d="M1238.41 102.26L1398.25 104.59" stroke="hsl(228.5, 77.2%, 51.5%)" stroke-width="1.5"></path><path d="M1238.41 102.26L1403.93 221.15" stroke="hsl(228.5, 77.2%, 51.5%)" stroke-width="1.5"></path><path d="M1238.41 102.26L1395.99 -44.66" stroke="hsl(228.5, 77.2%, 51.5%)" stroke-width="1.5"></path><path d="M1283.89 410.31L1283.89 410.31" stroke="hsl(228.5, 77.2%, 51.5%)" stroke-width="1.5"></path><path d="M1283.89 410.31L1277.01 491.38" stroke="hsl(228.5, 77.2%, 51.5%)" stroke-width="1.5"></path><path d="M1277.01 491.38L1277.01 491.38" stroke="hsl(228.5, 77.2%, 51.5%)" stroke-width="1.5"></path><path d="M1277.01 491.38L1409.73 493.46" stroke="hsl(228.5, 77.2%, 51.5%)" stroke-width="1.5"></path><path d="M1277.01 491.38L1103.15 491.6" stroke="hsl(228.5, 77.2%, 51.5%)" stroke-width="1.5"></path><path d="M1256.94 705L1256.94 705" stroke="hsl(228.5, 77.2%, 51.5%)" stroke-width="1.5"></path><path d="M1256.94 705L1277.01 491.38" stroke="hsl(228.5, 77.2%, 51.5%)" stroke-width="1.5"></path><path d="M1395.99 -44.66L1395.99 -44.66" stroke="hsl(228.5, 77.2%, 51.5%)" stroke-width="1.5"></path><path d="M1395.99 -44.66L1398.25 104.59" stroke="hsl(228.5, 77.2%, 51.5%)" stroke-width="1.5"></path><path d="M1398.25 104.59L1398.25 104.59" stroke="hsl(228.5, 77.2%, 51.5%)" stroke-width="1.5"></path><path d="M1398.25 104.59L1403.93 221.15" stroke="hsl(228.5, 77.2%, 51.5%)" stroke-width="1.5"></path><path d="M1403.93 221.15L1403.93 221.15" stroke="hsl(228.5, 77.2%, 51.5%)" stroke-width="1.5"></path><path d="M1403.93 221.15L1545.85 213.89" stroke="hsl(228.5, 77.2%, 51.5%)" stroke-width="1.5"></path><path d="M1409.73 493.46L1409.73 493.46" stroke="hsl(228.5, 77.2%, 51.5%)" stroke-width="1.5"></path><path d="M1409.73 493.46L1283.89 410.31" stroke="hsl(228.5, 77.2%, 51.5%)" stroke-width="1.5"></path><path d="M1409.73 493.46L1546.27 683.21" stroke="hsl(228.5, 77.2%, 51.5%)" stroke-width="1.5"></path><path d="M1598.81 -48.35L1598.81 -48.35" stroke="hsl(228.5, 77.2%, 51.5%)" stroke-width="1.5"></path><path d="M1598.81 -48.35L1395.99 -44.66" stroke="hsl(228.5, 77.2%, 51.5%)" stroke-width="1.5"></path><path d="M1598.81 -48.35L1398.25 104.59" stroke="hsl(228.5, 77.2%, 51.5%)" stroke-width="1.5"></path><path d="M1598.81 -48.35L1545.85 213.89" stroke="hsl(228.5, 77.2%, 51.5%)" stroke-width="1.5"></path><path d="M1598.81 -48.35L1403.93 221.15" stroke="hsl(228.5, 77.2%, 51.5%)" stroke-width="1.5"></path><path d="M1598.81 -48.35L1266.05 -94.21" stroke="hsl(228.5, 77.2%, 51.5%)" stroke-width="1.5"></path><path d="M1545.85 213.89L1545.85 213.89" stroke="hsl(228.5, 77.2%, 51.5%)" stroke-width="1.5"></path><path d="M1545.85 213.89L1608.03 362.6" stroke="hsl(228.5, 77.2%, 51.5%)" stroke-width="1.5"></path><path d="M1545.85 213.89L1398.25 104.59" stroke="hsl(228.5, 77.2%, 51.5%)" stroke-width="1.5"></path><path d="M1545.85 213.89L1301.97 235.81" stroke="hsl(228.5, 77.2%, 51.5%)" stroke-width="1.5"></path><path d="M1545.85 213.89L1395.99 -44.66" stroke="hsl(228.5, 77.2%, 51.5%)" stroke-width="1.5"></path><path d="M1608.03 362.6L1608.03 362.6" stroke="hsl(228.5, 77.2%, 51.5%)" stroke-width="1.5"></path><path d="M1546.27 683.21L1546.27 683.21" stroke="hsl(228.5, 77.2%, 51.5%)" stroke-width="1.5"></path><path d="M1546.27 683.21L1256.94 705" stroke="hsl(228.5, 77.2%, 51.5%)" stroke-width="1.5"></path><path d="M1546.27 683.21L1608.03 362.6" stroke="hsl(228.5, 77.2%, 51.5%)" stroke-width="1.5"></path><circle r="25" cx="-107.03" cy="638.08" fill="url(#SvgjsRadialGradient1001)"></circle><circle r="25" cx="96.73" cy="693.05" fill="url(#SvgjsRadialGradient1001)"></circle><circle r="25" cx="677.26" cy="398.32" fill="url(#SvgjsRadialGradient1001)"></circle><circle r="25" cx="829.61" cy="542.68" fill="url(#SvgjsRadialGradient1001)"></circle><circle r="25" cx="946.47" cy="653.9" fill="url(#SvgjsRadialGradient1001)"></circle><circle r="25" cx="1301.97" cy="235.81" fill="url(#SvgjsRadialGradient1001)"></circle><circle r="25" cx="1597.85" cy="544.18" fill="url(#SvgjsRadialGradient1001)"></circle><circle r="5" cx="-48.17" cy="497.77" fill="#8b9ad9"></circle><circle r="5" cx="90.35" cy="554.65" fill="#8b9ad9"></circle><circle r="5" cx="258.07" cy="655.02" fill="#8b9ad9"></circle><circle r="5" cx="394.35" cy="510.84" fill="#8b9ad9"></circle><circle r="5" cx="337.5" cy="646" fill="#8b9ad9"></circle><circle r="5" cx="501.33" cy="533.18" fill="#8b9ad9"></circle><circle r="5" cx="501.53" cy="708.92" fill="#8b9ad9"></circle><circle r="5" cx="651.86" cy="711.63" fill="#8b9ad9"></circle><circle r="5" cx="833.27" cy="355.53" fill="#8b9ad9"></circle><circle r="5" cx="813.48" cy="690.67" fill="#8b9ad9"></circle><circle r="5" cx="985.45" cy="378.4" fill="#8b9ad9"></circle><circle r="5" cx="1010.45" cy="552.91" fill="#8b9ad9"></circle><circle r="5" cx="1158.65" cy="97.06" fill="#8b9ad9"></circle><circle r="5" cx="1142.7" cy="368.92" fill="#8b9ad9"></circle><circle r="5" cx="1103.15" cy="491.6" fill="#8b9ad9"></circle><circle r="5" cx="1143.54" cy="645.1" fill="#8b9ad9"></circle><circle r="5" cx="1266.05" cy="-94.21" fill="#8b9ad9"></circle><circle r="5" cx="1238.41" cy="102.26" fill="#8b9ad9"></circle><circle r="5" cx="1283.89" cy="410.31" fill="#8b9ad9"></circle><circle r="5" cx="1277.01" cy="491.38" fill="#8b9ad9"></circle><circle r="5" cx="1256.94" cy="705" fill="#8b9ad9"></circle><circle r="5" cx="1395.99" cy="-44.66" fill="#8b9ad9"></circle><circle r="5" cx="1398.25" cy="104.59" fill="#8b9ad9"></circle><circle r="5" cx="1403.93" cy="221.15" fill="#8b9ad9"></circle><circle r="5" cx="1409.73" cy="493.46" fill="#8b9ad9"></circle><circle r="5" cx="1598.81" cy="-48.35" fill="#8b9ad9"></circle><circle r="5" cx="1545.85" cy="213.89" fill="#8b9ad9"></circle><circle r="5" cx="1608.03" cy="362.6" fill="#8b9ad9"></circle><circle r="5" cx="1546.27" cy="683.21" fill="#8b9ad9"></circle></g><defs><mask id="SvgjsMask1000"><rect width="1440" height="560" fill="#ffffff"></rect></mask><radialGradient id="SvgjsRadialGradient1001"><stop stop-color="#ffffff" offset="0.1"></stop><stop stop-color="#1735b3" offset="0.2"></stop><stop stop-color="rgba(23, 53, 179, 0)" offset="1"></stop></radialGradient></defs></svg>